name D:\school\WTK\thesis\model\3dpredictsim\Results\batch_windlass\Pog_s1_tmt_aCst_d05_k500_WL20_ig24_pas.mot
datacolumns 128
datarows 4
range 1.61195727 1.64419641
endheader
time	pelvis_tilt	pelvis_list	pelvis_rotation	pelvis_tx	pelvis_ty	pelvis_tz	hip_flexion_l	hip_adduction_l	hip_rotation_l	hip_flexion_r	hip_adduction_r	hip_rotation_r	knee_angle_l	knee_angle_r	ankle_angle_l	ankle_angle_r	subtalar_angle_l	subtalar_angle_r	tmt_angle_l	tmt_angle_r	mtp_angle_l	mtp_angle_r	lumbar_extension	lumbar_bending	lumbar_rotation	arm_flex_l	arm_add_l	arm_rot_l	arm_flex_r	arm_add_r	arm_rot_r	elbow_flex_l	elbow_flex_r	pro_sup_l	pro_sup_r	glut_med1_l/activation	glut_med2_l/activation	glut_med3_l/activation	glut_min1_l/activation	glut_min2_l/activation	glut_min3_l/activation	semimem_l/activation	semiten_l/activation	bifemlh_l/activation	bifemsh_l/activation	sar_l/activation	add_long_l/activation	add_brev_l/activation	add_mag1_l/activation	add_mag2_l/activation	add_mag3_l/activation	tfl_l/activation	pect_l/activation	grac_l/activation	glut_max1_l/activation	glut_max2_l/activation	glut_max3_l/activation	iliacus_l/activation	psoas_l/activation	quad_fem_l/activation	gem_l/activation	peri_l/activation	rect_fem_l/activation	vas_med_l/activation	vas_int_l/activation	vas_lat_l/activation	med_gas_l/activation	lat_gas_l/activation	soleus_l/activation	tib_post_l/activation	flex_dig_l/activation	flex_hal_l/activation	tib_ant_l/activation	per_brev_l/activation	per_long_l/activation	per_tert_l/activation	ext_dig_l/activation	ext_hal_l/activation	ercspn_l/activation	intobl_l/activation	extobl_l/activation	glut_med1_r/activation	glut_med2_r/activation	glut_med3_r/activation	glut_min1_r/activation	glut_min2_r/activation	glut_min3_r/activation	semimem_r/activation	semiten_r/activation	bifemlh_r/activation	bifemsh_r/activation	sar_r/activation	add_long_r/activation	add_brev_r/activation	add_mag1_r/activation	add_mag2_r/activation	add_mag3_r/activation	tfl_r/activation	pect_r/activation	grac_r/activation	glut_max1_r/activation	glut_max2_r/activation	glut_max3_r/activation	iliacus_r/activation	psoas_r/activation	quad_fem_r/activation	gem_r/activation	peri_r/activation	rect_fem_r/activation	vas_med_r/activation	vas_int_r/activation	vas_lat_r/activation	med_gas_r/activation	lat_gas_r/activation	soleus_r/activation	tib_post_r/activation	flex_dig_r/activation	flex_hal_r/activation	tib_ant_r/activation	per_brev_r/activation	per_long_r/activation	per_tert_r/activation	ext_dig_r/activation	ext_hal_r/activation	ercspn_r/activation	intobl_r/activation	extobl_r/activation	
          1.61195727	         -2.91879602	          1.41284845	         -6.06265352	          2.01494658	          0.85546367	          0.00265916	         31.89786936	          2.35194649	         -3.13172545	        -18.65778061	         -1.30250691	          8.17692027	        -19.22915702	         -9.35606104	         -1.89048827	         -1.56008967	         -3.05896085	         10.82641280	         -0.08721070	         -3.96989134	          0.67497079	         27.98617061	         -0.96130358	          0.32668909	          1.84756753	         -8.60761847	        -13.63101381	          8.16334799	          4.75622882	        -13.48006648	         16.05057189	         17.67617525	         33.52533672	         86.51662706	         86.51662706	          0.05000027	          0.05000023	          0.05000116	          0.05000019	          0.05000024	          0.05000048	          0.05895526	          0.05895523	          0.23388839	          0.05000038	          0.05000024	          0.11395579	          0.17672158	          0.18185912	          0.17082137	          0.11883591	          0.05000052	          0.05094913	          0.05895599	          0.05000094	          0.10826246	          0.11965659	          0.05913403	          0.06474681	          0.25157267	          0.05000461	          0.05000019	          0.05000016	          0.13675267	          0.13913726	          0.11811188	          0.05895532	          0.05895533	          0.05895531	          0.05000000	          0.05000111	          0.05000149	          0.42195886	          0.25972656	          0.15438925	          0.40704444	          0.58247573	          0.05692299	          0.05000008	          0.10983876	          0.10667515	          0.23489038	          0.08196438	          0.05000003	          0.28177861	          0.16849924	          0.08196519	          0.05000128	          0.05000010	          0.05000007	          0.06787613	          0.08463924	          0.15326567	          0.05000262	          0.05000046	          0.05000100	          0.05000056	          0.26866913	          0.07471612	          0.05000032	          0.05000100	          0.05000067	          0.05000058	          0.36958416	          0.59048893	          0.05000006	          0.05000020	          0.05000004	          0.23076303	          0.15636734	          0.07018625	          0.11373745	          0.28586511	          0.36506573	          0.23884363	          0.20613001	          0.18698201	          0.27102684	          0.05000000	          0.09251372	          0.15112011	          0.05000004	          0.05000000	          0.05000003	          0.05000000	          0.05000003	          0.05000003	
          1.62270365	         -2.90507914	          1.52271642	         -6.33344598	          2.03159864	          0.85438389	          0.00247125	         31.30373207	          2.78331126	         -2.90111230	        -18.41287885	         -1.63109865	          7.98041159	        -19.28565520	        -11.37777374	         -2.29670391	         -2.49887363	         -3.82719920	         11.88147791	         -0.11797818	         -4.67976217	          0.84355247	         28.98897120	         -0.73478067	          0.07746992	          1.91144580	         -9.67349430	        -13.62768956	          7.94275760	          4.47600195	        -13.51553952	         16.39881859	         17.59313666	         34.51528563	         86.51662706	         86.51662706	          0.05000004	          0.05000007	          0.05000013	          0.05000007	          0.05000010	          0.05000010	          0.05000002	          0.05000006	          0.19836082	          0.05000009	          0.05876871	          0.09664599	          0.14987769	          0.32807446	          0.22495996	          0.11724987	          0.05000013	          0.05000164	          0.05000075	          0.05415730	          0.12447109	          0.12997188	          0.05015171	          0.05895615	          0.48934010	          0.08196600	          0.05550677	          0.06951457	          0.23999224	          0.23202679	          0.20136191	          0.05000001	          0.05000001	          0.05000000	          0.05000015	          0.05000060	          0.05000008	          0.57652930	          0.22027408	          0.13093752	          0.47188313	          0.61921089	          0.21173429	          0.05000000	          0.09315425	          0.09047118	          0.19921054	          0.06951400	          0.05000010	          0.23897649	          0.14290421	          0.06951470	          0.05000084	          0.05000010	          0.05000015	          0.05756576	          0.07178264	          0.22711419	          0.18494318	          0.07918232	          0.05000211	          0.05000081	          0.22785837	          0.10000759	          0.05000066	          0.05000066	          0.05000036	          0.05000033	          0.31344431	          0.51190290	          0.05000011	          0.05000149	          0.05895529	          0.19571011	          0.15370833	          0.15843084	          0.13436686	          0.24244217	          0.30961221	          0.20256326	          0.17481886	          0.15857949	          0.22985788	          0.05000452	          0.07846090	          0.12816498	          0.05000014	          0.07535767	          0.05000027	          0.05000004	          0.06951458	          0.05895568	
          1.63345003	         -2.88735283	          1.64512827	         -6.57792764	          2.04847612	          0.85319215	          0.00229906	         30.55364233	          3.17895525	         -2.58213806	        -18.07360148	         -1.95471388	          7.77040300	        -19.81299157	        -13.56504983	         -2.43622059	         -3.53828117	         -4.65155365	         12.86760270	         -0.31438409	         -5.30501917	          1.00535737	         29.57427905	         -0.49099744	         -0.19142265	          1.96326990	        -10.73568981	        -13.63365741	          7.80097491	          4.12315465	        -13.55718865	         16.67691726	         17.50068244	         35.51434306	         86.51662706	         86.51662706	          0.29976652	          0.30291520	          0.36473549	          0.12403406	          0.05000032	          0.32058994	          0.08541995	          0.05000025	          0.17087463	          0.05000004	          0.05000014	          0.08196557	          0.23063841	          0.27824005	          0.22899578	          0.16188546	          0.05000013	          0.06942925	          0.12824668	          0.05000005	          0.17998212	          0.14368722	          0.05895514	          0.05000103	          0.41500931	          0.06951541	          0.19430502	          0.05895530	          0.23052663	          0.24100797	          0.20745822	          0.05895533	          0.05895535	          0.05895532	          0.05000035	          0.05000020	          0.05091648	          0.50567612	          0.18681445	          0.11104811	          0.40020410	          0.56237291	          0.17957188	          0.05000002	          0.08196615	          0.07672861	          0.26582556	          0.05895484	          0.05000005	          0.20267605	          0.12119708	          0.05895543	          0.06324673	          0.05000015	          0.05000018	          0.05000002	          0.06087893	          0.19729976	          0.31861383	          0.06715536	          0.05895589	          0.09026191	          0.23433623	          0.08481692	          0.05000072	          0.05000479	          0.05001052	          0.05895465	          0.26583211	          0.47866189	          0.05000060	          0.05000035	          0.05000003	          0.16598173	          0.13036006	          0.13436521	          0.11395655	          0.20561519	          0.26258210	          0.17179388	          0.14826387	          0.13449130	          0.19494249	          0.12628742	          0.16528248	          0.16026405	          0.05000016	          0.18382061	          0.10817543	          0.07587977	          0.05895532	          0.05000036	
          1.64419641	         -2.86841725	          1.77101062	         -6.79191024	          2.06533712	          0.85198704	          0.00212036	         29.65714420	          3.55426677	         -2.24432542	        -17.59989726	         -2.25979219	          7.55623771	        -20.29712098	        -15.96519091	         -2.37146632	         -4.62637471	         -5.49912382	         13.76186780	         -0.47682212	         -5.69816905	          1.17605276	         29.36508410	         -0.25154102	         -0.46593839	          2.00409360	        -11.73470371	        -13.64300703	          7.76379668	          3.74068111	        -13.60234192	         16.89840785	         17.35711628	         36.48717901	         86.51662706	         86.51662706	          0.39629215	          0.46557236	          0.52278557	          0.21555914	          0.34971418	          0.33908784	          0.07244482	          0.10999581	          0.14491877	          0.06951460	          0.05000024	          0.06951500	          0.19560443	          0.23597546	          0.19696562	          0.17768571	          0.05000008	          0.05888308	          0.10876637	          0.28597571	          0.24466458	          0.18183474	          0.05000002	          0.05000002	          0.35196939	          0.05895626	          0.16479036	          0.05000001	          0.29433207	          0.31239089	          0.26720884	          0.05000001	          0.05000004	          0.05000000	          0.13122980	          0.05001475	          0.05000031	          0.62749289	          0.15843732	          0.09417989	          0.34879228	          0.57117231	          0.34795928	          0.06576118	          0.06951551	          0.06507353	          0.22544667	          0.05000002	          0.05000001	          0.18519609	          0.10278726	          0.05000015	          0.08748609	          0.05000023	          0.05000017	          0.05000023	          0.05895540	          0.21832386	          0.27021643	          0.05695453	          0.05000069	          0.07655131	          0.25427082	          0.07193347	          0.05000016	          0.05000029	          0.05000017	          0.05000013	          0.22545221	          0.43491620	          0.05000001	          0.05000010	          0.05000005	          0.14076910	          0.11055837	          0.11395514	          0.09664655	          0.17438222	          0.22269586	          0.14569838	          0.12574262	          0.11406214	          0.16533080	          0.15678919	          0.14017645	          0.13591999	          0.15741637	          0.22012055	          0.09174382	          0.10755820	          0.05000000	          0.05000001	
